<mxfile host="app.diagrams.net" modified="2023-02-11T16:34:27.945Z" agent="5.0 (Macintosh; Intel Mac OS X 10_15_7) AppleWebKit/537.36 (KHTML, like Gecko) Chrome/107.0.0.0 Safari/537.36" etag="J86x0gFWql9UKpRTIeXb" version="20.8.19" type="github">
  <diagram name="第 1 页" id="_ODYe5222jEe517QAjUZ">
    <mxGraphModel dx="1026" dy="683" grid="1" gridSize="10" guides="1" tooltips="1" connect="1" arrows="1" fold="1" page="1" pageScale="1" pageWidth="827" pageHeight="1169" math="0" shadow="0">
      <root>
        <mxCell id="0" />
        <mxCell id="1" parent="0" />
        <mxCell id="eHnUgJTZA4LSR4SYBX4O-8" style="edgeStyle=orthogonalEdgeStyle;rounded=0;orthogonalLoop=1;jettySize=auto;html=1;entryX=0;entryY=0.5;entryDx=0;entryDy=0;fontSize=18;" edge="1" parent="1" source="eHnUgJTZA4LSR4SYBX4O-1" target="eHnUgJTZA4LSR4SYBX4O-4">
          <mxGeometry relative="1" as="geometry" />
        </mxCell>
        <mxCell id="eHnUgJTZA4LSR4SYBX4O-9" style="edgeStyle=orthogonalEdgeStyle;rounded=0;orthogonalLoop=1;jettySize=auto;html=1;fontSize=18;" edge="1" parent="1" source="eHnUgJTZA4LSR4SYBX4O-1" target="eHnUgJTZA4LSR4SYBX4O-5">
          <mxGeometry relative="1" as="geometry" />
        </mxCell>
        <mxCell id="eHnUgJTZA4LSR4SYBX4O-10" style="edgeStyle=orthogonalEdgeStyle;rounded=0;orthogonalLoop=1;jettySize=auto;html=1;entryX=0;entryY=0.5;entryDx=0;entryDy=0;fontSize=18;" edge="1" parent="1" source="eHnUgJTZA4LSR4SYBX4O-1" target="eHnUgJTZA4LSR4SYBX4O-6">
          <mxGeometry relative="1" as="geometry" />
        </mxCell>
        <mxCell id="eHnUgJTZA4LSR4SYBX4O-11" style="edgeStyle=orthogonalEdgeStyle;rounded=0;orthogonalLoop=1;jettySize=auto;html=1;entryX=0;entryY=0.5;entryDx=0;entryDy=0;fontSize=18;" edge="1" parent="1" source="eHnUgJTZA4LSR4SYBX4O-1" target="eHnUgJTZA4LSR4SYBX4O-7">
          <mxGeometry relative="1" as="geometry" />
        </mxCell>
        <mxCell id="eHnUgJTZA4LSR4SYBX4O-1" value="" style="shape=cylinder3;whiteSpace=wrap;html=1;boundedLbl=1;backgroundOutline=1;size=15;" vertex="1" parent="1">
          <mxGeometry x="60" y="170" width="60" height="80" as="geometry" />
        </mxCell>
        <mxCell id="eHnUgJTZA4LSR4SYBX4O-4" value="&lt;font style=&quot;font-size: 18px;&quot;&gt;第一抽结果&lt;br&gt;头饰&lt;/font&gt;" style="rounded=0;whiteSpace=wrap;html=1;fillColor=#d5e8d4;strokeColor=#82b366;" vertex="1" parent="1">
          <mxGeometry x="210" y="90" width="120" height="60" as="geometry" />
        </mxCell>
        <mxCell id="eHnUgJTZA4LSR4SYBX4O-5" value="&lt;font style=&quot;font-size: 18px;&quot;&gt;第二抽结果&lt;br&gt;面饰&lt;/font&gt;" style="rounded=0;whiteSpace=wrap;html=1;fillColor=#fff2cc;strokeColor=#d6b656;" vertex="1" parent="1">
          <mxGeometry x="210" y="150" width="120" height="60" as="geometry" />
        </mxCell>
        <mxCell id="eHnUgJTZA4LSR4SYBX4O-6" value="&lt;span style=&quot;font-size: 18px;&quot;&gt;...&lt;/span&gt;" style="rounded=0;whiteSpace=wrap;html=1;fillColor=#ffe6cc;strokeColor=#d79b00;" vertex="1" parent="1">
          <mxGeometry x="210" y="210" width="120" height="60" as="geometry" />
        </mxCell>
        <mxCell id="eHnUgJTZA4LSR4SYBX4O-7" value="&lt;span style=&quot;font-size: 18px;&quot;&gt;第十抽结果&lt;br&gt;车辆&lt;br&gt;&lt;/span&gt;" style="rounded=0;whiteSpace=wrap;html=1;fillColor=#ffe6cc;strokeColor=#d79b00;" vertex="1" parent="1">
          <mxGeometry x="210" y="270" width="120" height="60" as="geometry" />
        </mxCell>
      </root>
    </mxGraphModel>
  </diagram>
</mxfile>
